HIERARCHY
ROOT Hips
{
	OFFSET -0.179506 -22.333345 2.821913
	CHANNELS 6 Xposition Yposition Zposition Zrotation Yrotation Xrotation 
	JOINT LeftUpLeg
	{
		OFFSET 6.951974 -9.140623 -0.681533
		CHANNELS 3 Zrotation Yrotation Xrotation
		JOINT LeftLeg
		{
			OFFSET 3.427654 -37.519855 -0.449580
			CHANNELS 3 Zrotation Yrotation Xrotation
			JOINT LeftFoot
			{
				OFFSET -1.359570 -39.796059 -4.369333
				CHANNELS 3 Zrotation Yrotation Xrotation
				JOINT LeftToe
				{
					OFFSET 2.635814 -5.579078 11.928840
					CHANNELS 3 Zrotation Yrotation Xrotation
					End Site
					{
						OFFSET 0.000000 0.000000 0.000000
					}
				}
			}
		}
	}
	JOINT RightUpLeg
	{
		OFFSET -6.767048 -9.052170 -0.431982
		CHANNELS 3 Zrotation Yrotation Xrotation
		JOINT RightLeg
		{
			OFFSET -3.829005 -38.256897 -0.885003
			CHANNELS 3 Zrotation Yrotation Xrotation
			JOINT RightFoot
			{
				OFFSET 1.577377 -39.841461 -4.231180
				CHANNELS 3 Zrotation Yrotation Xrotation
				JOINT RightToe
				{
					OFFSET -2.537174 -4.814398 12.334795
					CHANNELS 3 Zrotation Yrotation Xrotation
					End Site
					{
						OFFSET 0.000000 0.000000 0.000000
					}
				}
			}
		}
	}
	JOINT Spine
	{
		OFFSET -0.253288 10.896323 -2.669631
		CHANNELS 3 Zrotation Yrotation Xrotation
		JOINT Spine1
		{
			OFFSET 0.548704 13.518043 0.109247
			CHANNELS 3 Zrotation Yrotation Xrotation
			JOINT Spine2
			{
				OFFSET 0.145701 5.292222 2.542457
				CHANNELS 3 Zrotation Yrotation Xrotation
				JOINT Neck
				{
					OFFSET -0.277840 21.387037 -4.285703
					CHANNELS 3 Zrotation Yrotation Xrotation
					JOINT Head
					{
						OFFSET 0.515184 6.496960 5.134897
						CHANNELS 3 Zrotation Yrotation Xrotation
						End Site
						{
							OFFSET 0.000000 0.000000 0.000000
						}
					}
				}
				JOINT LeftShoulder
				{
					OFFSET 7.884473 12.174932 -3.408961
					CHANNELS 3 Zrotation Yrotation Xrotation
					JOINT LeftArm
					{
						OFFSET 9.097692 3.046888 -0.886815
						CHANNELS 3 Zrotation Yrotation Xrotation
						JOINT LeftForeArm
						{
							OFFSET 25.961220 -1.277207 -2.745643
							CHANNELS 3 Zrotation Yrotation Xrotation
							JOINT LeftHand
							{
								OFFSET 24.923361 0.898606 -0.117091
								CHANNELS 3 Zrotation Yrotation Xrotation
								End Site
								{
									OFFSET 0.000000 0.000000 0.000000
								}
							}
						}
					}
				}
				JOINT RightShoulder
				{
					OFFSET -8.175920 11.883285 -3.861528
					CHANNELS 3 Zrotation Yrotation Xrotation
					JOINT RightArm
					{
						OFFSET -9.601238 3.255117 -0.914307
						CHANNELS 3 Zrotation Yrotation Xrotation
						JOINT RightForeArm
						{
							OFFSET -25.374195 -1.332924 -2.140099
							CHANNELS 3 Zrotation Yrotation Xrotation
							JOINT RightHand
							{
								OFFSET -25.529810 0.777228 -0.555919
								CHANNELS 3 Zrotation Yrotation Xrotation
								End Site
								{
									OFFSET 0.000000 0.000000 0.000000
								}
							}
						}
					}
				}
			}
		}
	}
}
MOTION
Frames: 14
Frame Time: 0.033333
-291.140656 -259.006744 92.938545 137.757295 -0.072462 88.910589 -2.014998 3.034676 6.492198 -2.566413 -4.025856 -4.296600 3.870807 12.515652 -11.374584 nan nan nan -0.070723 -3.375702 3.216425 3.196184 0.245448 1.327681 3.184485 -5.802692 -9.301182 nan nan nan 0.763696 1.637034 5.205808 0.758117 -2.624709 4.621065 0.172273 -0.604414 -2.490445 -0.997248 5.183629 -1.161902 1.250879 5.564481 5.052063 -28.812468 -0.428856 2.127073 -55.892649 -4.483686 13.172434 2.256059 -24.357596 7.670372 -6.305422 -9.656499 0.965442 28.042396 3.536908 4.043665 55.700011 3.072610 14.179433 -9.193927 21.289799 -1.712668 7.713884 8.313757 -0.703405 
-291.150635 -259.031158 92.951523 137.736546 -0.183558 89.079173 -2.170217 2.929061 6.272077 -2.533084 -3.958224 -4.249800 3.797938 12.579603 -11.344649 nan nan nan -0.166917 -3.216308 3.033615 3.260535 0.404364 1.295500 3.387553 -5.846832 -9.257356 nan nan nan 0.686757 1.560316 4.985982 0.682644 -2.648338 4.760575 -0.034797 -0.599135 -2.569595 -1.595771 4.135593 -1.813657 0.840664 4.106479 5.002147 -28.607769 -0.187868 2.092997 -55.828660 -4.514435 13.273155 2.355288 -24.679620 7.831098 -6.726698 -10.009098 1.341515 28.349714 3.599134 3.961952 55.646500 2.933923 14.221144 -9.166432 21.378950 -1.358482 7.751593 8.364727 -0.158683 
-291.141022 -259.017639 92.961571 137.773311 -0.220446 89.041230 -2.145379 2.890647 6.331640 -2.456723 -4.124077 -3.884130 4.155713 12.381990 -11.295882 nan nan nan -0.220439 -3.190216 3.160323 3.328555 0.569861 1.015979 3.340679 -5.733664 -9.306822 nan nan nan 0.597345 1.600685 5.039854 0.713776 -2.685737 4.744329 -0.011049 -0.613881 -2.544453 -1.567550 4.085865 -1.759854 0.861806 4.124724 4.989590 -28.607797 -0.166025 2.080587 -55.864735 -4.597565 13.165915 2.327826 -24.622419 7.824812 -6.715232 -9.963664 1.303074 28.343184 3.521389 3.905877 55.684396 3.002041 14.174159 -9.285449 21.458785 -1.408493 7.833576 8.372872 -0.006592 
-291.118256 -258.994446 92.950668 137.836481 -0.202762 88.999917 -2.103852 2.911791 6.414416 -2.479872 -4.087641 -3.914068 4.167282 12.359309 -11.236505 nan nan nan -0.204797 -3.194563 3.300644 3.364343 0.566752 0.820439 3.308210 -5.707839 -9.305056 nan nan nan 0.605585 1.578113 5.025518 0.676682 -2.681636 4.693628 0.003887 -0.644533 -2.447698 -1.475382 4.111693 -1.705771 0.921458 4.179976 4.987431 -28.546901 -0.175818 2.170500 -55.908277 -4.652174 13.092879 2.316393 -24.689103 7.929978 -6.722059 -10.100403 1.148494 28.224570 3.519574 3.980885 55.861421 2.999971 14.225914 -9.191816 21.400311 -1.245700 7.819304 8.368762 -0.220537 
-291.098206 -258.999054 92.937012 137.883812 -0.202653 88.931215 -2.040223 2.926710 6.575372 -2.543862 -4.094311 -3.998719 4.211347 12.350371 -11.276914 nan nan nan -0.202303 -3.225347 3.404470 3.358363 0.503226 0.844190 3.318650 -5.721528 -9.398049 nan nan nan 0.599297 1.546934 5.137554 0.645848 -2.669576 4.548301 0.122172 -0.649992 -2.287755 -1.002323 4.995201 -1.271115 1.233884 5.323750 5.029728 -28.510755 -0.255519 2.248768 -56.008746 -4.674489 12.977266 2.267284 -24.676366 8.004842 -6.514343 -10.045292 0.699760 27.824823 3.429800 4.075782 56.288575 3.086187 14.325856 -9.120449 21.307005 -1.187072 7.783692 8.277686 -0.847734 
-291.052063 -258.946259 92.843216 137.840233 -0.280572 88.589315 -2.097889 2.943291 7.284813 -2.569639 -4.268214 -4.439660 4.720440 12.477714 -11.507794 nan nan nan -0.428289 -3.214083 3.997289 3.506352 0.543346 0.581676 3.100433 -5.686943 -9.945186 nan nan nan 0.596119 1.587092 5.334558 0.543690 -2.652156 4.523826 0.408111 -0.559590 -2.335491 0.156601 6.502689 1.102940 2.626216 7.890143 5.048288 -28.557762 -0.497356 2.703584 -55.782555 -4.835185 12.585708 2.516727 -23.619640 9.705783 -8.945679 -11.621229 1.673929 26.672655 3.374193 4.339445 57.510786 3.004100 14.350129 -9.462768 21.342687 -0.134482 8.963928 9.047757 -1.121746 
-291.104584 -258.984100 92.854568 137.788541 -0.296467 88.650232 -2.159702 2.915082 7.141909 -2.555001 -4.164174 -4.385368 4.727766 12.395687 -11.470982 nan nan nan -0.472795 -3.183423 3.838342 3.517897 0.510304 0.632855 2.969440 -5.649923 -10.000873 nan nan nan 0.640905 1.588553 5.375327 0.505769 -2.650178 4.497243 0.385148 -0.565901 -2.343152 0.159578 6.615550 1.091564 2.663520 7.927751 4.671814 -28.493800 -0.431293 2.608293 -55.875891 -4.863127 12.581992 2.522653 -23.656663 9.827091 -9.092105 -11.670803 1.759649 26.637908 3.346560 4.307533 57.516417 3.118181 14.300309 -9.451905 21.342144 -0.072498 9.055630 9.074185 -1.013516 
-291.065796 -258.981628 92.854485 137.734610 -0.295598 88.636270 -2.161957 2.906307 7.182226 -2.506599 -4.120935 -4.435930 4.747281 12.385938 -11.523907 nan nan nan -0.457662 -3.172643 3.901302 3.491144 0.517096 0.530665 2.888052 -5.586480 -10.068467 nan nan nan 0.668175 1.614318 5.325121 0.486806 -2.621598 4.528723 0.362572 -0.545518 -2.351564 0.110175 6.599225 1.074718 2.659160 7.817864 4.644461 -28.442657 -0.427931 2.643201 -55.895046 -4.841967 12.576991 2.474554 -23.783243 9.920300 -9.203600 -11.809037 1.796167 26.630954 3.364268 4.334709 57.547877 3.093454 14.258894 -9.456881 21.306744 -0.077214 9.122953 9.152359 -1.039598 
-291.033783 -259.004791 92.857880 137.760375 -0.310181 88.636213 -2.162191 2.870425 7.144776 -2.490600 -4.133985 -4.390603 4.777860 12.347436 -11.551528 nan nan nan -0.437741 -3.196904 3.922965 3.445818 0.499860 0.520300 2.935220 -5.606914 -10.040710 nan nan nan 0.610206 1.632205 5.312646 0.497666 -2.654051 4.516743 0.388268 -0.560446 -2.358176 0.112185 6.593484 1.131160 2.657053 7.824448 4.634306 -28.430421 -0.437319 2.643380 -55.936280 -4.861109 12.573452 2.519474 -23.633993 9.834386 -9.169030 -11.700390 1.750644 26.632707 3.353272 4.345189 57.567900 3.125678 14.257692 -9.463048 21.274057 -0.119403 9.111964 9.111369 -1.091316 
-291.036407 -259.014008 92.860542 137.768722 -0.325507 88.665310 -2.188008 2.851944 7.081746 -2.495777 -4.114896 -4.369857 4.784162 12.351775 -11.514333 nan nan nan -0.465028 -3.189114 3.872110 3.463365 0.523739 0.602386 3.033291 -5.641451 -9.996503 nan nan nan 0.599549 1.630660 5.285038 0.491705 -2.667206 4.498469 0.385630 -0.579060 -2.348311 0.147218 6.621041 1.105975 2.661108 7.867394 4.750877 -28.429778 -0.425495 2.645486 -55.969345 -4.872773 12.589789 2.571843 -23.533933 9.833995 -9.131255 -11.655414 1.744959 26.654376 3.338445 4.371711 57.554123 3.194460 14.283824 -9.466589 21.230241 -0.113739 9.064165 9.065080 -1.077089 
-291.040283 -259.005402 92.860435 137.699239 -0.393185 88.767530 -2.327612 2.885995 6.959673 -2.396495 -4.124624 -4.393196 5.083942 12.420878 -11.514756 nan nan nan -0.559499 -3.108936 3.689384 3.496298 0.513042 0.789306 3.216421 -5.626400 -10.019533 nan nan nan 0.684009 1.637727 5.159650 0.407917 -2.780387 4.640902 0.254508 -0.525919 -2.572744 -0.014491 6.524831 1.220485 2.828341 8.168218 4.718007 -28.342491 -0.431025 2.477516 -55.958356 -4.478591 12.897442 2.621351 -23.649859 9.629368 -9.222921 -11.847890 1.352806 26.236282 3.144087 4.205930 58.135852 2.888265 14.161204 -9.654365 24.003853 -1.806682 9.144376 10.627916 -3.331737 
-291.047760 -258.981506 92.865044 137.639883 -0.430609 88.745385 -2.360111 2.901498 7.033213 -2.418578 -4.100001 -4.496030 5.101384 12.417752 -11.494318 nan nan nan -0.634651 -3.089565 3.758341 3.521824 0.491202 0.721603 3.265929 -5.547983 -9.979677 nan nan nan 0.718652 1.646288 5.156491 0.372789 -2.746744 4.625361 0.225158 -0.549969 -2.490222 -0.024512 6.612975 1.106705 2.804428 8.152492 4.804380 -28.380936 -0.390822 2.443529 -55.950392 -4.529148 12.847809 2.594733 -23.587454 9.801503 -9.308949 -11.961973 1.447527 26.340977 3.143680 4.251618 58.008048 2.954609 14.235596 -9.498386 23.913921 -1.439460 9.241049 10.680198 -2.887944 
-291.068481 -258.977356 92.856682 137.655261 -0.449937 88.765932 -2.381079 2.878772 6.961824 -2.453580 -4.087616 -4.463987 5.120309 12.457542 -11.546542 nan nan nan -0.679363 -3.011369 3.779787 3.532291 0.655921 0.655856 3.275148 -5.381575 -9.890285 nan nan nan 0.747924 1.641137 5.207100 0.381376 -2.762308 4.604305 0.208212 -0.520060 -2.559594 -0.117304 6.568156 1.044994 2.832161 8.136552 4.887038 -28.432411 -0.391384 2.425928 -55.937471 -4.527026 12.879244 2.548234 -23.559229 9.813293 -9.302638 -11.991615 1.492500 26.346327 3.120711 4.268030 57.966731 2.902851 14.241388 -9.479011 23.910954 -1.390627 9.287919 10.726822 -2.787999 
-291.063019 -258.980499 92.835022 137.711380 -0.454616 88.799340 -2.366587 2.811132 6.848157 -2.491287 -4.077707 -4.361361 5.130900 12.454831 -11.581770 nan nan nan -0.683380 -2.931079 3.823679 3.550021 0.960925 0.561805 3.266308 -5.165945 -9.710230 nan nan nan 0.746052 1.632565 5.126685 0.406946 -2.832286 4.689988 0.192110 -0.538051 -2.601203 -0.162129 6.572499 1.011208 2.858486 8.113913 4.940984 -28.470625 -0.366619 2.428572 -55.946560 -4.532646 12.849675 2.580574 -23.608256 9.712538 -9.291429 -12.002060 1.530864 26.382706 3.106728 4.307440 57.892485 2.993614 14.241103 -9.460311 23.969897 -1.296539 9.313426 10.706210 -2.529656 
